<svg width="40" height="36" viewBox="0 0 40 36" fill="none" xmlns="http://www.w3.org/2000/svg">
<path d="M19.0765 1.82907C19.418 1.0073 20.582 1.0073 20.9235 1.82907L24.7577 11.0576C25.2063 12.1375 26.2417 12.8583 27.4102 12.9043L37.9088 13.3171C38.8605 13.3546 39.226 14.5751 38.4517 15.1295L30.5752 20.7686C29.5259 21.5198 29.0746 22.8579 29.4545 24.0912L32.2087 33.0305C32.4783 33.9055 31.5279 34.6526 30.7413 34.1841L21.5352 28.7005C20.5893 28.1371 19.4107 28.1371 18.4648 28.7005L9.25871 34.1841C8.47212 34.6526 7.52171 33.9055 7.79129 33.0305L10.5455 24.0912C10.9254 22.8579 10.4741 21.5198 9.42484 20.7686L1.54833 15.1295C0.773973 14.5751 1.13955 13.3546 2.09116 13.3171L12.5898 12.9043C13.7583 12.8583 14.7937 12.1375 15.2423 11.0576L19.0765 1.82907Z" fill="#FDF300" stroke="black" stroke-width="2"/>
</svg>
