<svg width="36" height="30" viewBox="0 0 36 30" fill="none" xmlns="http://www.w3.org/2000/svg">
<path d="M16.7946 1.6097C17.1434 0.808739 18.2794 0.808742 18.6282 1.6097L21.8992 9.12055C22.3596 10.1776 23.3851 10.8774 24.5372 10.9206L33.2096 11.246C34.1734 11.2821 34.5325 12.5271 33.7361 13.071L27.454 17.3618C26.3558 18.1119 25.8825 19.4955 26.2912 20.761L28.5284 27.6884C28.8088 28.5564 27.8758 29.3158 27.0828 28.8651L19.1936 24.3821C18.2745 23.8598 17.1483 23.8598 16.2292 24.3821L8.34002 28.8651C7.54698 29.3158 6.61404 28.5564 6.89436 27.6884L9.13156 20.761C9.54028 19.4955 9.06699 18.1119 7.96877 17.3618L1.68666 13.071C0.890259 12.5271 1.24941 11.2821 2.21318 11.246L10.8855 10.9206C12.0377 10.8774 13.0632 10.1776 13.5236 9.12055L16.7946 1.6097Z" stroke="black" stroke-width="2"/>
</svg>
